PathFileType	4	(X/Y/Z)	Patient4_TMGait_0pt6_02_left_01.trc.trc
DataRate	CameraRate	NumFrames	NumMarkers	Units	OrigDataRate	OrigDataStartFrame	OrigNumFrames
88.607594936709	88.607594936709	4	33	mm	88.607594936709	1	       141
Frame#	Time	Sacral			L.Shoulder			Chest			R.Shoulder			Neck			R.ASIS			L.ASIS			R.Thigh.Superior			R.Thigh.Lateral			R.Thigh.Inferior			R.Patella			L.Thigh.Superior			L.Thigh.Lateral			L.Thigh.Inferior			L.Patella			L.Shank.Superior			L.Shank.Lateral			L.Shank.Inferior			R.Shank.Superior			R.Shank.Lateral			R.Shank.Inferior			R.Heel			R.Midfoot.Superior			R.Midfoot.Lateral			R.Toe			L.Heel			L.Midfoot.Lateral			L.Midfoot.Superior			L.Toe			L.Elbow			L.Wrist			R.Elbow			R.Wrist			
		X1	Y1	Z1	X2	Y2	Z2	X3	Y3	Z3	X4	Y4	Z4	X5	Y5	Z5	X6	Y6	Z6	X7	Y7	Z7	X8	Y8	Z8	X9	Y9	Z9	X10	Y10	Z10	X11	Y11	Z11	X12	Y12	Z12	X13	Y13	Z13	X14	Y14	Z14	X15	Y15	Z15	X16	Y16	Z16	X17	Y17	Z17	X18	Y18	Z18	X19	Y19	Z19	X20	Y20	Z20	X21	Y21	Z21	X22	Y22	Z22	X23	Y23	Z23	X24	Y24	Z24	X25	Y25	Z25	X26	Y26	Z26	X27	Y27	Z27	X28	Y28	Z28	X29	Y29	Z29	X30	Y30	Z30	X31	Y31	Z31	X32	Y32	Z32	X33	Y33	Z33	

1	1.170000000000	709.432113966787	1017.083823261759	552.223632072348	874.560668317106	1441.469096214345	360.389231577551	995.982419534794	1368.716270416630	505.923602696373	936.750314276532	1441.032574536862	689.383266958527	876.854236097327	1498.992970899453	516.019370056843	941.619180366506	943.100572389838	647.723439149368	905.191100742574	969.592360221979	376.310726144552	957.876888201215	736.858197588104	618.304620738897	865.448470904326	636.026291034874	679.314194503236	934.429747253167	577.570137111031	598.551618415945	927.007590076088	494.846794527155	603.129305719271	994.548579918607	799.852764125087	398.619922105513	958.123335602043	673.186663162321	314.463329904338	1068.751235109880	617.631681225021	369.389112525234	1092.018465198005	533.150701528942	357.883809921454	1042.143194896098	457.256177161280	352.237315061467	916.142753279661	378.833148327699	305.923487246136	942.420479175699	249.844892878695	358.806467663945	901.812443482544	408.203083868063	606.993452519738	831.629990085219	300.208264061553	661.600682953853	881.972183441763	209.291473135056	597.278841458514	756.551343227608	42.444619525067	552.051134299923	925.173271542423	96.819746704079	598.528855783051	835.757715907749	36.097992434521	631.868381227463	1044.207897799886	45.013964868496	632.002654975973	779.720861994440	131.192490059731	400.179099668357	844.958061266627	106.431478835655	316.745280782826	943.555332010630	145.364848675287	335.305685274926	1050.408086360084	62.604905166652	301.521961542189	813.418384200684	1085.925048487643	261.490463578178	880.861739653892	832.999978106937	256.133602771099	985.292229255303	1095.503221802281	811.087011414493	1197.266851853510	950.634487390905	773.604332878520	
2	1.181285714286	708.712693238151	1017.162007717818	552.665034053625	874.329407474912	1441.195025979032	360.993418226896	996.102306837960	1368.029236425382	506.015021832370	937.818947191894	1440.489073894465	689.757762419614	877.312196555158	1498.679647010620	516.568286014916	940.851057678271	942.686497188221	647.800378809860	904.215559971584	969.171680411027	376.341818188702	956.023232051152	736.317560568464	618.299482223017	862.925054756994	635.910996560432	679.455919591243	931.346095561290	576.991726341117	598.655441933137	923.099262974865	494.300400801440	603.236743872214	993.275021965921	800.211746253894	399.214420250260	958.191388477480	673.375263891377	314.893725522630	1068.264569017834	618.411913941228	371.069550540019	1093.061231337785	535.678674048396	359.244414553319	1046.616455134270	459.333127381799	352.861785733622	925.844254036252	374.681613135081	305.925502476966	959.374007720020	247.526851788763	358.213322921055	897.382584603331	407.872909257403	607.014354644350	826.575160575193	300.275072582801	661.675875426479	876.019562361738	209.037772862477	597.195659927854	749.501794640342	42.613391265677	552.161827400260	918.209776526355	96.734482210031	598.545971044281	828.716479633417	36.175226701966	631.918616454183	1037.192486113427	44.466226035692	632.050241241856	804.405617800813	120.381174012815	399.040180076178	870.685740179265	99.631651781963	315.593009643515	966.606583235777	143.623892947632	334.489837998617	1077.334254281565	67.156015603629	300.582629567693	806.939010718544	1086.464708367275	263.726216974723	862.712056154457	831.917073783970	259.479699579464	994.109130031416	1096.725505783523	810.683618401873	1212.357322832252	965.317108072194	770.448320616943	
3	1.192571428571	708.029666051881	1017.240882374543	553.086548905047	874.118087365212	1440.939465599622	361.569396857127	996.225040338679	1367.360767071602	506.090540247021	938.860885415764	1439.953822862304	690.105601402866	877.764586012068	1498.374720653197	517.092610528791	940.114546806090	942.290780426643	647.873606516016	903.273797758442	968.754702825721	376.349205149928	954.203484025022	735.773773712062	618.341140663746	860.389828215358	635.800922266492	679.597047017565	928.268365737370	576.411639476958	598.784238573559	919.209672558116	493.764425984709	603.348772502714	991.969473911058	800.492172062679	399.777977119389	958.134177539929	673.487673668528	315.303483785043	1067.663250973612	619.080423992449	372.693527889268	1093.943317041559	538.100467174412	360.595303131152	1050.912496653484	461.357976431713	353.503992772916	935.431679411787	370.597750367924	305.890038604279	976.077680230249	245.355619975893	357.660427278433	892.972879557351	407.554053390178	607.040955677423	821.553893322284	300.347556395278	661.750632864106	870.127271182411	208.795953061946	597.118955778467	742.540628928613	42.777237483211	552.272790599082	911.332263323390	96.652250185490	598.563265390615	821.759054300862	36.246072946887	631.954145193720	1030.261827413444	43.933777615435	632.098837914308	828.845075290844	109.893833058554	397.852615401081	896.192467212285	93.116659288090	314.464943603249	989.377821303376	142.082683804756	333.758236972513	1103.900448192902	71.885979511862	299.873194673825	800.546325555578	1087.055488825277	265.884529247061	844.919525737314	831.001542330977	262.767094885850	1002.763093105918	1097.962169843021	810.233205729899	1227.061304139226	979.878326255543	767.310960020533	
4	1.203857142857	707.421717289049	1017.317092897919	553.460949179942	873.943336112396	1440.716831370592	362.084817722986	996.354282876566	1366.726723767874	506.128223442485	939.851801761537	1439.433023848993	690.394068787344	878.202625480783	1498.081314132440	517.564436166558	939.444231485063	941.923275527987	647.929461491272	902.406262282486	968.338507171017	376.303940965955	952.427509410925	735.216226074537	618.451500225371	857.811709880599	635.700762421256	679.728868140615	925.169049215511	575.826067296884	598.946765772145	915.316908402212	493.242796754601	603.460908454649	990.610498274122	800.609704211538	400.279016985319	957.835841807046	673.441700983353	315.668499423527	1066.842294679917	619.517256907630	374.196411734589	1094.516112142252	540.308049870559	361.916410364197	1054.871638069546	463.277806707322	354.169129310183	944.806269353033	366.629849047158	305.800010561025	992.330299239895	243.466323016127	357.186791135037	888.555935544369	407.253617954324	607.071963465262	816.543616657379	300.433938214853	661.821701687090	864.287984740493	208.576323100104	597.051536553075	735.673235942420	42.936736276558	552.383773892361	904.546110947789	96.575981186986	598.581401610584	814.887113483878	36.306374233362	631.961567198502	1023.419525447802	43.429321160477	632.149764797410	852.867550917446	100.027399740516	396.619792121733	921.307921353272	87.138356363731	313.410509707699	1011.648388067897	140.923734120131	333.182205660902	1129.805808761243	76.961132458200	299.565929021521	794.284175245868	1087.763085885602	267.887797670511	827.737123923140	830.424144142641	265.948835432256	1011.146410485691	1099.242557800751	809.668445217838	1241.054419112579	994.317496414214	764.182802441802	
